<svg width="1920" height="474" viewBox="0 0 1920 474" fill="none" xmlns="http://www.w3.org/2000/svg">
<g clip-path="url(#clip0_416_405)">
<rect y="148" width="1923" height="326" fill="#FFCC4D"/>
<path d="M1904.21 74.4224C1899.06 71.1282 1897.89 66.5444 1900.67 62.1438C1892.37 70.9296 1878.79 72.5178 1867.86 77.3526C1866.62 67.7935 1867.52 59.2778 1874.2 52.8416C1862.3 54.073 1849.05 55.8016 1838.27 59.8227C1825.66 64.5291 1817.34 75.9869 1802.94 76.6555C1802.53 78.0795 1803.09 79.8902 1802.58 81.1501C1803.22 68.9832 1811.33 62.0795 1807.53 49.965C1804.6 40.657 1814.51 27.7691 1819.89 17.1429C1813.74 24.3869 1790.21 26.5212 1775 41.9823C1767.75 49.3488 1766.63 58.8674 1756.86 63.1157C1754.88 52.367 1745.05 39.5434 1752.83 29.5977C1745.83 33.1846 1736.72 36.2611 1731.44 42.0988C1724.89 49.3547 1725.35 58.9138 1717.51 64.5874C1715.69 58.9959 1724.17 33.2488 1730.87 27.693C1701.2 33.5534 1693.11 39.8301 1682.89 54.4073C1680.75 37.076 1690.83 10.5557 1707.39 -0.000366211C1682.08 13.5977 1663.16 31.5844 1638.42 48.9681C1614.51 65.7711 1594.82 63.9663 1559.58 90.3464C1562.22 82.2351 1573.73 50.0233 1581.91 44.9945C1556.55 53.0415 1502.83 63.8367 1490.36 86.6364C1481.76 78.4959 1492.25 49.965 1502.14 31.2097C1488.36 36.1623 1448.98 49.965 1431.41 69.5281C1420.87 81.2619 1406.75 80.1662 1396.1 92.468C1391.15 88.0313 1389.84 81.344 1390.6 74.7972C1377.53 71.6386 1363.74 79.6796 1353.56 86.4079C1349.57 81.2738 1347.37 78.9873 1349.78 72.676C1341.25 77.8511 1331.75 81.971 1322.23 84.9951C1329.4 68.4443 1339.07 47.2157 1360.31 45.9201C1332.34 45.9962 1306.09 50.6205 1281.24 63.4036C1256.7 76.0345 1231.53 76.7542 1210.41 95.4102C1214.68 79.0586 1235.28 35.558 1249.13 31.6309C1227.2 30.1307 1207.97 50.7787 1190.8 60.1213C1173.31 69.6459 1153.43 72.676 1134.8 78.8885C1114.58 85.634 1106.28 96.2543 1090.18 108.498C1067.96 125.395 1088.95 91.6828 1090.43 74.5807C1084.35 75.5181 1064.56 85.0189 1058.95 87.9551C1060.69 77.4526 1053.16 55.2162 1058.28 45.2753C1044.25 53.1414 1039.1 74.6449 1023.09 78.3198C1006.22 82.1934 985.938 79.9961 975.293 96.6586C974.446 88.2834 997.701 62.8588 985.338 49.965C968.665 68.5609 947.041 81.0038 922.283 89.8189C920.627 75.1255 904.429 65.5843 882.756 83.1309C886.341 69.3996 887.664 54.6535 914.864 38.2431C887.664 39.4149 865.409 51.1368 851.129 73.5373C841.733 88.2658 816.022 85.7396 807.8 102.549C802.818 93.6872 790.17 87.0173 778.727 88.2775C776.737 77.7036 782.393 68.5549 787.784 60.1035C778.326 62.6303 773.003 69.4698 764.361 72.8985C754.186 76.9303 744.659 74.2047 734.205 73.6135C709.558 72.212 700.162 80.5707 683.971 95.4221C689.213 86.2554 692.051 81.6902 693.022 71.2282C693.998 60.6959 686.877 54.2835 697.021 44.7483C676.628 54.688 667.23 69.4163 650.28 76.9243C639.585 81.6664 623.704 88.8752 613.189 96.6233C605.288 102.449 603.31 111.276 596.022 118.133C590.396 107.601 575.591 111.528 568.092 119.452C579.43 95.1757 547.067 69.2937 567.443 41.7586C550.558 56.5047 515.515 56.9972 496.763 73.4433C480.115 88.0489 474.162 100.773 455.673 107.39C455.031 100.468 455.345 93.4527 456.857 86.7477C439.022 86.4019 429.562 98.6103 418.923 110.262C421.488 98.3465 419.04 86.7945 418.763 75.2255C418.521 65.1096 421.773 56.1537 422.714 46.0022C410.137 52.637 409.796 62.4828 402.202 73.2268C394.208 84.5323 381.732 91.8936 370.857 99.2198C371.201 97.5201 371.703 96.0549 371.79 94.0564C362.139 91.9991 353.018 95.5333 345.83 101.523C346.371 89.0277 343.433 67.3712 360.943 65.4784C340.003 65.8353 319.514 69.7506 301.728 81.5962C286.432 91.7881 278.183 108.633 258.881 112.718C259.141 105.057 260.102 98.6279 263.876 91.8057C249.135 92.3215 241.632 105.251 232.894 114.113C237.147 93.3296 233.335 70.2253 252.101 55.1449C229.158 49.7592 214.188 71.503 198.338 82.4278C178.178 96.3246 167.103 90.5339 147.075 100.369C151.2 80.7515 156.771 70.5536 165.621 52.3087C152.31 60.6781 117.648 61.7797 103.802 69.8922C88.5488 78.8302 89.6807 99.6301 77.1713 106.007C79.8617 98.2997 78.6169 89.6548 77.3596 81.4023C55.8203 111.334 -0.699533 97.4734 0.00655593 148.909L1924.98 149.601C1947.08 148.844 1960.84 136.707 1975.67 110.918C1986.58 91.9639 1941.88 68.2385 1959.54 56.7985C1940.84 64.0365 1917.76 59.0434 1904.21 74.4224Z" fill="#FF673E"/>
<path d="M1945.04 82.442C1942.18 92.7298 1928.53 92.4664 1920.78 97.6162C1916.6 100.39 1910.01 114.57 1904.93 112.562C1906.85 104.604 1912.27 97.745 1910.9 88.762C1902.76 93.3559 1892.26 95.012 1885.23 100.999C1878.79 106.482 1874.81 115.518 1866.11 118.017C1869.34 114.845 1868.77 108.87 1869.01 104.709C1860.9 112.018 1844.58 116.314 1837.11 124.998C1842 116.202 1846.43 107.863 1845.45 97.4992C1844.97 92.5366 1843.4 87.6851 1843.14 82.822C1842.92 78.8012 1844.32 75.3374 1844.28 71.3518C1834.75 82.904 1814.73 86.3455 1801.4 93.3675C1794.04 97.2532 1789.55 102.825 1784.91 109.303C1781.31 114.3 1772.33 124.249 1772.5 130.663C1772.47 121.978 1769.63 117.917 1765.25 110.982C1761.31 117.092 1751.02 120.679 1749.63 127.737C1751.56 109.49 1741.6 96.0595 1737.42 78.9595C1732.45 86.2517 1724.76 90.4474 1718.55 96.8848C1713.93 101.689 1705.82 108.975 1703 116.202C1704.77 107.857 1706.8 99.9043 1704.34 90.9155C1701.46 80.4639 1696.98 72.3473 1697.06 61.3744C1695.12 69.6668 1683.66 77.8538 1677.16 82.8513C1667.04 90.6521 1655.82 97.3294 1645.11 104.522C1645.03 104.563 1644.98 104.609 1644.91 104.65C1643.88 91.5417 1639.6 72.7741 1650.42 64.6517C1644.91 67.718 1637.72 68.3735 1631.28 70.4044C1613.67 75.9636 1602.97 92.7062 1588.72 103.181C1577.92 111.123 1565.16 110.38 1552.52 111.971C1541.3 113.382 1533.45 118.438 1526.33 126.537C1525.39 116.513 1535.49 110.017 1535.64 100.408C1535.76 92.238 1532.84 85.6549 1536.79 77.6603C1528.51 79.6619 1519.52 85.608 1512.91 90.8979C1506.2 96.276 1501.35 103.468 1492.95 106.699C1479.75 111.761 1463.68 114.265 1457.1 126.83C1456.36 119.38 1463.09 113.92 1464.68 106.991C1465.89 101.765 1465.21 95.6907 1465.14 90.3127C1465.06 82.8571 1459.32 69.4558 1464.3 63.0242C1455.5 64.4289 1450.34 74.1672 1445.06 80.118C1437.75 88.3523 1429.88 97.031 1419.96 102.631C1407.03 109.935 1392.75 108.156 1382.1 121.019C1380.82 122.57 1374.61 133.601 1370.96 131.008C1368.45 129.235 1373.57 120.135 1374.21 117.964C1375.47 113.68 1377.62 107.846 1376.56 103.334C1375.63 99.36 1371.33 96.4868 1369.78 93.0164C1359.9 98.5876 1348.29 102.708 1341.41 111.919C1340.43 107.284 1339.01 101.876 1338.89 96.9725C1328.68 98.7162 1318.3 104.404 1310.22 110.532C1306.06 113.686 1297.09 119.644 1295.68 124.811C1296.74 115.687 1299.57 106.201 1298.64 96.8964C1297.88 89.3003 1292.34 77.5254 1297.73 70.6377C1287.51 75.2964 1275.14 79.1706 1266.25 88.1182C1257.97 96.4399 1251.79 106.108 1241.36 111.45C1240.05 107.571 1240.99 104.106 1242.42 100.507C1232.84 99.2256 1220.77 102.801 1211.98 106.143C1207.04 108.021 1196.77 113.768 1193.37 119.316C1195.89 104.58 1181.22 88.2878 1189.22 75.3316C1171.92 83.0272 1154.37 88.0362 1138.22 98.3651C1125.1 106.763 1120.32 121.077 1107.8 129.024C1107.52 126.637 1108 124.354 1108.86 122.148C1100.22 121.37 1092.1 120.334 1083.43 122.078C1074.84 123.798 1068.53 129.545 1061.4 132.518C1060.19 126.748 1063.51 120.48 1063.77 114.453C1063.96 109.935 1062.06 100.624 1064.53 96.9021C1055.12 109.168 1035.66 113.774 1022.2 121.446C1019.9 122.751 1017.83 124.173 1015.96 125.694C1015.35 123.354 1014.59 121.06 1013.68 118.847C1008.85 107.05 1011.72 103.556 1019.15 94.1928C1012.84 100.478 1007.38 99.1435 998.896 101.092C990.598 103.006 983.813 109.08 975.952 112.258C969.403 114.897 947.114 119.339 943.961 127.404C945.803 113.891 953.119 99.477 957.906 86.994C952.359 97.0367 941.969 100.519 930.794 103.462C924.974 104.996 919.991 107.231 914.9 110.356C911.877 112.211 908.122 113.78 905.419 116.033C903.132 117.94 901.579 121.914 899.253 123.553C897.386 124.863 891.226 127.433 889.476 123.26C888.178 120.141 893.811 116.454 895.103 113.868C898.196 107.711 898.302 99.0441 897.936 92.3025C896.873 92.1445 895.475 92.0332 894.423 92.3142C891.709 97.3646 881.406 97.47 876.836 99.6645C870.984 102.468 867.256 109.18 861.69 112.252C864.46 105.241 864.51 97.2242 866.025 89.8738C867.101 84.6652 866.315 77.8538 869.766 73.3886C858.542 82.5874 846.111 91.3193 834.992 100.507C828.355 105.996 825.685 110.918 822.116 117.982C819.79 122.57 816.283 128.521 811.045 130.166C818.059 123.014 802.307 123.646 797.842 123.816C790.216 124.109 781.244 124.787 777.266 131.968C772.888 125.595 775.201 116.097 776.809 109.098C773.612 113.066 763.401 114.646 757.613 116.343C751.453 118.14 748.083 121.528 743.666 125.66C746.993 114.646 745.924 101.122 747.13 89.7861C741.503 95.5445 729.597 105.598 717.568 116.963C715.318 115.541 712.628 114.745 709.485 114.95C711.106 108.688 710.327 100.15 709.919 93.5899C698.96 99.3953 690.815 110.315 678.619 113.429C668.291 116.062 658.767 116.027 652.774 125.542C655.83 118.783 649.046 110.257 649.416 103.919C649.744 98.4412 658.117 87.41 661.556 82.4889C648.26 94.4032 626.275 95.3924 612.917 107.998C607.332 113.271 605.514 121.844 598.569 126.028C592.824 129.481 585.241 128.158 579.657 132.536C579.044 129.241 578.296 125.414 579.471 122.183C567.98 122.482 563.429 132.348 554.285 136.029C553.562 132.003 555.416 128.392 555.321 124.477C550.301 125.057 547.867 128.656 544.548 131.962C548.618 120.404 544.897 109.496 541.36 97.9557C539.794 92.8352 535.385 87.9251 535.005 82.8513C534.771 79.7146 536.948 72.3473 539.527 71.6626C530.497 72.984 516.678 79.3523 510.254 85.3207C504.188 90.9565 500.637 99.5123 495.427 106.02C494.529 103.673 494.809 100.911 494.82 98.2424C492.567 108.267 472.435 116.548 463.266 117.379C453.6 118.257 441.239 119.597 436.025 128.878C436.367 123.33 435.921 115.214 437.415 109.426C434.107 118.239 422.271 124.981 415.492 131.277C414.825 131.898 414.19 132.518 413.57 133.133C409.024 128.948 403.611 125.66 398.811 121.633C391.072 115.155 394.041 104.364 398.726 95.8547C393.212 102.561 384.746 105.552 378.573 111.527C372.804 117.109 367.445 126.789 359.49 129.58C354.195 123.711 350.431 118.888 351.992 111.146C343.745 115.951 336.848 121.329 330.459 128.275C327.71 125.297 326.723 121.768 327.255 117.601C323.289 119.702 319.163 122.142 316.679 125.952C308.516 116.758 304.909 102.579 315.052 92.8761C303.06 99.2489 294.844 112.896 282.679 119.281C275.601 122.997 268.829 122.002 261.036 123.213C253.847 124.337 246.828 127.462 240.719 130.798C239.018 126.139 240.591 119.439 241.907 114.657C236.739 118.221 234.583 123.523 229.993 127.181C225.34 130.891 217.589 132.167 212.878 134.262C215.979 130.85 217.31 124.542 220.155 120.422C214.121 120.024 208.704 118.543 202.904 117.982C196.252 117.332 192.326 121.13 187.504 125.367C190.708 120.89 189.91 114.769 192.252 109.759C194.216 105.552 196.673 100.068 198.495 96.6973C187.09 104.44 173.952 108.718 160.263 110.971C147.786 113.031 138.722 115.096 130.387 124.834C130.931 120.527 130.082 114.903 126.836 111.497C123.878 108.396 119.044 107.729 117.526 103.363C115.286 96.914 120.268 84.4894 126.343 80.5519C117.791 85.4907 108.925 88.7969 102.1 96.1825C96.7144 102.011 92.8284 109.467 87.4232 115.184C77.2857 125.9 59.3194 120.855 48.2469 131.804C49.1259 126.192 51.2693 119.778 50.7969 114.043C45.9413 123.061 34.9351 127.573 26.6654 133.337C18.9386 138.727 9.11155 141.507 6.07178 148.863L1920.53 149.601C1920.53 149.601 1951.4 141.121 1957.73 116.823C1960.51 106.166 1949.79 91.723 1945.04 82.442Z" fill="#FF9B50"/>
<path d="M1943.01 105.162C1938.06 113.356 1910.51 129.005 1897.1 126.401C1894.66 121.883 1888.02 115.866 1895.01 112.665C1882.93 116.545 1865.95 139.844 1854.26 124.71C1848.94 134.279 1829.06 140.02 1820.17 133.401C1809.1 125.143 1811.31 116.329 1816.1 105.835C1809.6 108.083 1807.64 110.488 1803.45 115.164C1794.7 124.92 1777.13 140.921 1763.38 137.129C1755.26 134.887 1760.78 131.224 1752.14 134.255C1748.99 135.361 1746.67 139.569 1743.64 140.418C1735.92 142.566 1729.49 139.113 1727.11 132.698C1724.17 124.798 1729 118.225 1717.69 121.462C1707.59 124.353 1706.94 134.091 1696.52 133.524C1676.08 132.417 1686.51 107.772 1683.35 95.8977C1676.82 103.851 1669.44 115.381 1660.09 121.064C1650.43 126.945 1637.9 124.979 1628.76 131.469C1623.16 126.243 1617.97 115.861 1618.42 108.381C1600.2 132.927 1568.93 115.902 1545.99 126.313C1535.73 130.978 1522.62 135.818 1511.19 137.322C1493.44 139.657 1501.43 127.46 1502.43 117.886C1498.05 119.817 1492.76 122.766 1487.76 123.937C1482.21 125.242 1475.48 123.955 1470.12 125.869C1458.97 129.831 1452.79 139.973 1438.71 137.831C1439.13 130.246 1434.86 125.19 1434.86 117.774C1434.86 110.956 1438.69 104.753 1441.41 98.7711C1435.14 106.9 1424.83 111.67 1415.37 115.381C1404.14 119.788 1399.69 127.455 1389.6 132.956C1375.18 140.804 1347.35 144.807 1351.2 122.275C1340.37 123.533 1316.51 144.585 1317.8 121.374C1307.02 122.772 1296.87 143.204 1285.47 137.082C1278.56 133.372 1274.79 109.938 1277.03 102.962C1263.93 104.571 1258.87 121.397 1249.29 128.309C1245.91 130.761 1241.51 133.489 1237.1 136.544C1232.9 131.979 1228.52 128.04 1225.89 126.553C1218.92 122.609 1213.44 128.596 1205.8 127.302C1205.58 126.466 1205.74 125.746 1205.52 124.903C1200.04 126.19 1192.93 129.643 1190.65 135.197C1182.91 135.08 1155.29 117.886 1161.04 109.083C1154.86 112.847 1150.26 108.867 1154.54 103.202C1135.53 111.6 1113.54 143.76 1090.61 139.522C1083.37 138.182 1081.73 133.489 1074.12 135.549C1070.73 136.467 1068.38 140.073 1065.58 140.418C1062.92 140.746 1060.05 137.802 1057.21 137.966C1050.98 138.329 1047.93 143.765 1041.23 139.979C1035.07 136.503 1034.47 129.333 1038.33 124.054C1030.27 124.388 1027.04 129.924 1020.3 132.915C1013.79 135.8 1006.32 133.875 999.86 132.827C999.737 133.313 999.62 133.81 999.521 134.302C988.892 136.116 983.789 128.309 987.828 119.776C973.836 128.128 959.917 134.659 943.084 134.448C938.662 134.396 937.424 134.021 933.057 134.671C929.053 135.274 928.776 138.89 923.802 136.889C917.411 134.325 917.158 125.939 919.744 121.415C907.038 125.125 902.144 136.649 888.336 139.938C880.146 141.887 878.371 139.616 872.798 135.349C868.677 132.201 863.358 127.905 866.128 122.491C859.54 124.897 855.049 130.117 849.321 133.699C844.458 127.402 841.347 116.58 845.567 109.177C829.581 109.891 828.851 138.744 809.47 140.64C801.967 141.378 792.916 138.211 784.62 138.644C778.274 138.978 768.951 139.493 762.282 141.343C760.309 136.087 761.658 130.714 763.65 125.564C756.536 127.917 753.257 133.635 747.114 136.865C742.073 139.522 731.673 141.015 726.1 141.343C725.716 134.284 726.693 127.94 727.677 121.421C725.636 123.141 720.532 128.818 715.255 135.408C713.035 132.985 710.901 131.025 709.255 129.953C706.267 131.481 695.602 134.723 692.348 134.255C683.138 132.938 687.974 125.933 690.535 119.636C684.436 120.847 678.318 124.464 672.367 126.77C669.28 127.964 664.635 128.695 661.93 130.041C658.943 131.522 656.252 135.238 653.629 136.251C650.728 137.369 643.669 137.585 640.409 138.182C635.442 139.089 625.99 142.051 621.276 138.668C614.947 134.126 620.026 124.095 621.919 118.805C609.795 118.881 598.406 136.871 586.776 139.721C575.134 142.572 558.129 142.437 547.041 139.569C547.003 138.586 546.769 137.439 546.739 136.473C545.776 137.743 543.912 138.352 542.914 139.587C537.914 137.849 533.143 134.214 528.322 132.874C523.974 131.663 519.414 132.447 514.566 129.913C514.141 123.048 517.952 110.389 513.501 105.379C508.574 109.095 505.757 115.024 500.489 118.676C493.84 123.282 492.933 121.11 484.966 121.479C477.979 121.807 455.849 128.59 453.93 135.18C449.323 136.625 420.208 144.011 426.115 131.949C419.548 133.635 412.624 141.255 407.489 141.688C400.613 142.279 391.818 135.086 385.591 133.424C385.758 132.259 385.287 130.779 385.495 129.515C376.092 131.247 370.246 138.276 362.233 139.721C354.42 141.126 340.573 139.166 339.829 130.153C336.783 131.838 314.811 148.366 315.698 134.583C309.872 135.303 303.006 134.665 298.209 138.925C291.871 135.028 294.523 125.605 297.189 120.566C290.381 122.129 285.451 128.724 277.796 130.726C271.191 132.453 265.048 133.131 258.517 134.653C252.344 136.087 223.562 149.331 225.647 135.42C221.57 137.966 214.992 137.217 210.289 138.159C205.338 139.148 200.488 140.71 195.359 141.343C196.305 136.854 195.487 131.341 196.978 126.688C186.171 127.092 172.821 133.219 163.804 137.872C163.355 132.78 163.926 125.828 167.982 122.123C156.501 122.96 148.055 131.938 137.502 135.133C127.466 138.176 118.878 135.771 109.085 139.604C108.575 134.618 105.985 130.65 105.072 125.746C100.053 128.865 94.0416 132.382 90.5575 137.018C91.3005 130.656 95.6251 124.107 95.0746 117.207C78.3637 133.98 53.9274 133.646 33.9534 144.023C34.183 142.226 33.2793 139.839 33.5805 138.053C27.5619 142.642 19.926 141.372 19.2275 148.998L1894.71 149.601C1899.14 149.612 1925.53 138.85 1931.26 133.84C1937.92 128.005 1952.29 118.038 1943.01 105.162Z" fill="#FFCC4D"/>
</g>
<defs>
<clipPath id="clip0_416_405">
<rect width="1920" height="474" fill="white"/>
</clipPath>
</defs>
</svg>
