<svg width="1920" height="371" viewBox="0 0 1920 371" fill="none" xmlns="http://www.w3.org/2000/svg">
<path d="M1920 150.167V261.908C1893.83 295.917 1855.81 318 1813.7 318C1734.79 318 1670.19 246.892 1670.19 158.558C1670.19 71.1083 1733.56 0 1811.24 0C1848.45 0 1886.88 21.2 1915.91 56.975L1878.71 145.308H1870.53C1894.65 74.2 1872.57 13.25 1806.34 13.25C1746.64 13.25 1698.81 77.7333 1698.81 158.558C1698.81 240.267 1748.69 304.75 1809.61 304.75C1883.61 304.75 1909.78 216.417 1911.82 150.167H1920Z" fill="white" fill-opacity="0.7" style="mix-blend-mode:luminosity"/>
<path d="M1623.63 313.583V309.167C1633.44 309.167 1638.35 303.425 1634.26 290.617L1583.15 183.733C1572.93 188.592 1561.89 193.008 1550.85 196.1V313.583H1506.7V309.167C1517.33 309.167 1522.23 302.1 1522.23 287.083V26.5H1505.88V22.0833L1550.85 4.41667H1604.82C1644.48 4.41667 1666.56 34.45 1666.56 72.4333C1666.56 117.925 1634.67 157.233 1590.1 180.642C1594.19 187.267 1597.87 189.917 1604.82 189.917C1607.27 189.917 1610.14 189.475 1613.41 189.033L1673.92 313.583H1623.63ZM1590.51 13.25H1550.85V186.383C1573.75 176.667 1629.76 140.892 1629.76 70.6667C1629.76 37.5417 1617.09 13.25 1590.51 13.25Z" fill="white" fill-opacity="0.7" style="mix-blend-mode:luminosity"/>
<path d="M1428.31 4.41667L1510.08 313.583H1464.29V309.167C1474.1 309.167 1478.6 302.983 1475.32 290.175L1449.98 194.333H1359.62C1353.08 232.758 1353.08 269.858 1358.8 313.583H1317.91L1393.14 28.7083C1396.82 15.0167 1388.65 8.83334 1377.2 8.83334V4.41667H1428.31ZM1361.25 185.5H1447.52L1403.77 20.3167L1367.39 159C1364.93 167.833 1362.89 176.667 1361.25 185.5Z" fill="white" fill-opacity="0.7" style="mix-blend-mode:luminosity"/>
<path d="M1158.7 313.583V309.167C1169.33 309.167 1174.24 302.1 1174.24 287.083V26.5H1157.88V22.0833L1202.86 4.41667H1209.81C1273.59 4.41667 1325.93 47.2583 1325.93 158.558C1325.93 270.742 1274 313.583 1211.04 313.583H1158.7ZM1202.86 304.75H1209.4C1253.56 304.75 1289.13 268.092 1289.13 158.558C1289.13 50.35 1253.15 13.25 1208.58 13.25H1202.86V304.75Z" fill="white" fill-opacity="0.7" style="mix-blend-mode:luminosity"/>
<path d="M902.942 313.583V309.167C913.572 309.167 918.478 302.1 918.478 287.083V26.5H902.124V22.0833L947.098 4.41667H1042.77L1059.13 167.833H1050.95C1041.54 60.5084 1018.65 13.25 987.167 13.25H947.098V139.125H995.344L998.615 117.042H1003.52V170.042H998.615L995.344 147.958H947.098V304.75H973.265C1020.28 304.75 1038.27 257.492 1023.15 150.167H1031.32L1059.94 313.583H902.942Z" fill="white" fill-opacity="0.7" style="mix-blend-mode:luminosity"/>
<path d="M853.763 286.642V26.5H837.409V22.0833L882.383 4.41667V287.083C882.383 302.1 887.29 309.167 897.92 309.167V313.583H853.763L759.726 30.9167V287.083C759.726 302.1 764.632 309.167 775.263 309.167V313.583H715.569V309.167C726.199 309.167 731.106 302.1 731.106 287.083V26.5H714.751V22.0833L759.726 4.41667L853.763 286.642Z" fill="white" fill-opacity="0.7" style="mix-blend-mode:luminosity"/>
<path d="M666.392 286.642V26.5H650.037V22.0833L695.012 4.41667V287.083C695.012 302.1 699.918 309.167 710.549 309.167V313.583H666.392L572.354 30.9167V287.083C572.354 302.1 577.261 309.167 587.891 309.167V313.583H528.198V309.167C538.828 309.167 543.734 302.1 543.734 287.083V26.5H527.38V22.0833L572.354 4.41667L666.392 286.642Z" fill="white" fill-opacity="0.7" style="mix-blend-mode:luminosity"/>
<path d="M449.809 4.41667L531.58 313.583H485.788V309.167C495.601 309.167 500.098 302.983 496.827 290.175L471.478 194.333H381.12C374.579 232.758 374.579 269.858 380.303 313.583H339.417L414.647 28.7083C418.326 15.0167 410.149 8.83334 398.701 8.83334V4.41667H449.809ZM382.756 185.5H469.025L425.277 20.3167L388.889 159C386.435 167.833 384.391 176.667 382.756 185.5Z" fill="white" fill-opacity="0.7" style="mix-blend-mode:luminosity"/>
<path d="M65.2896 158.558C65.2896 71.1083 129.889 0 208.799 0C287.3 0 351.899 71.1083 351.899 158.558C351.899 246.892 287.3 318 208.799 318C129.889 318 65.2896 246.892 65.2896 158.558ZM93.9097 158.558C93.9097 241.15 142.973 306.517 204.71 309.167V162.975H161.371L158.1 185.058H153.194V132.058H158.1L161.371 154.142H204.71V8.83333C142.973 11.4834 93.9097 76.85 93.9097 158.558ZM259.497 185.058L256.227 162.975H212.887V309.167C274.216 306.517 323.279 241.15 323.279 158.558C323.279 76.85 274.216 11.4834 212.887 8.83333V154.142H256.227L259.497 132.058H264.404V185.058H259.497Z" fill="white" fill-opacity="0.7" style="mix-blend-mode:luminosity"/>
<path d="M0 362.167C17.1721 355.542 20.4429 350.683 20.4429 332.575V26.5H4.08859V22.0833L49.063 4.41667V324.625C49.063 346.708 30.6644 364.375 0 371V362.167Z" fill="white" fill-opacity="0.7" style="mix-blend-mode:luminosity"/>
</svg>
